<?xml version="1.0" encoding="utf-8"?>
<!-- Generator: Adobe Illustrator 24.3.0, SVG Export Plug-In . SVG Version: 6.00 Build 0)  -->
<svg version="1.1" id="Capa_1" xmlns="http://www.w3.org/2000/svg" xmlns:xlink="http://www.w3.org/1999/xlink" x="0px" y="0px"
	 viewBox="0 0 120 50" style="enable-background:new 0 0 120 50;" xml:space="preserve">
<style type="text/css">
	.st0{fill:#FFF0CE;stroke:#000000;stroke-width:3;stroke-miterlimit:10;}
	.st1{fill:none;stroke:#000000;stroke-width:3;stroke-miterlimit:10;}
	.st2{fill:#FFA5C9;stroke:#000000;stroke-width:3;stroke-miterlimit:10;}
	.st3{fill:#FFDC92;stroke:#000000;stroke-width:3;stroke-miterlimit:10;}
	.st4{fill:#C0D85C;stroke:#000000;stroke-width:3;stroke-miterlimit:10;}
</style>
<g id="Capa_2_1_">
	<path class="st0" d="M111.3,27.5c2.6-1.1,2.6-3.9,0-5.1l-16-7.1L79.2,8.4c-2.6-1.1-5.8,0.3-5.8,2.5l-0.1,14l0.1,14
		c0,2.2,3.2,3.6,5.8,2.5l16.1-6.9L111.3,27.5z"/>
	<path class="st0" d="M26.7,34.7l16.1,6.9c2.6,1.1,5.8-0.3,5.8-2.5l0.1-14l-0.1-14c0-2.2-3.2-3.6-5.8-2.5l-16.1,6.9l-16,7.1
		c-2.6,1.1-2.6,3.9,0,5.1L26.7,34.7z"/>
</g>
<g id="Capa_1_1_">
	<g id="user">
		
			<ellipse transform="matrix(0.2076 -0.9782 0.9782 0.2076 139.4236 201.7162)" class="st1" cx="194.2" cy="14.8" rx="9.2" ry="9.2"/>
		<path class="st1" d="M212.6,42.4c0-10.2-8.2-18.4-18.4-18.4c-10.2,0-18.4,8.2-18.4,18.4"/>
	</g>
	<g id="plus">
		<line class="st1" x1="150.9" y1="14.8" x2="150.9" y2="34.8"/>
		<line class="st1" x1="140.9" y1="24.8" x2="160.9" y2="24.8"/>
		<circle class="st1" cx="150.9" cy="24.8" r="20"/>
		<rect x="224.6" y="4.4" class="st1" width="30" height="40"/>
		<line class="st1" x1="232.7" y1="14.7" x2="246.5" y2="14.7"/>
		<line class="st1" x1="232.7" y1="23.7" x2="246.5" y2="23.7"/>
		<line class="st1" x1="232.7" y1="32.8" x2="246.5" y2="32.8"/>
		<rect x="266.5" y="11.2" class="st1" width="45" height="26.6"/>
		<line class="st1" x1="290.4" y1="26.8" x2="267.5" y2="11.2"/>
		<line class="st1" x1="311.4" y1="10.9" x2="288.7" y2="27"/>
		<path class="st2" d="M480.5-156.2l-22.8-41.7c-3-5.6-8.9-9-15.2-9.1l-98.4-0.3c-6.1,0-11.9,3.2-15,8.5l-25.4,42.6L480.5-156.2
			L480.5-156.2z"/>
		<path class="st3" d="M332.5-156.2l-22.8-41.7c-3-5.6-8.9-9-15.2-9.1l-98.4-0.3c-6.1,0-11.9,3.2-15,8.5l-25.4,42.6L332.5-156.2
			L332.5-156.2z"/>
		<path class="st4" d="M185.5-156.2l-22.8-41.7c-3-5.6-8.9-9-15.2-9.1l-98.4-0.3c-6.2,0-11.9,3.2-15,8.5L8.7-156.2L185.5-156.2
			L185.5-156.2z"/>
	</g>
</g>
</svg>
