<?xml version="1.0" encoding="utf-8"?>
<!-- Generator: Adobe Illustrator 24.3.0, SVG Export Plug-In . SVG Version: 6.00 Build 0)  -->
<svg version="1.1" xmlns="http://www.w3.org/2000/svg" xmlns:xlink="http://www.w3.org/1999/xlink" x="0px" y="0px"
	 viewBox="0 0 480 70" style="enable-background:new 0 0 480 70;" xml:space="preserve">
<style type="text/css">
	.st0{fill:none;stroke:#000000;stroke-width:3;stroke-miterlimit:10;}
	.st1{fill:#FFA5C9;stroke:#000000;stroke-width:3;stroke-miterlimit:10;}
	.st2{fill:#FFDC92;stroke:#000000;stroke-width:3;stroke-miterlimit:10;}
	.st3{fill:#C0D85C;stroke:#000000;stroke-width:3;stroke-miterlimit:10;}
</style>
<g id="user">
	<circle class="st0" cx="190.42" cy="232.79" r="9.22"/>
	<path class="st0" d="M208.86,260.44c0-10.18-8.25-18.44-18.44-18.44c-10.18,0-18.44,8.25-18.44,18.44"/>
</g>
<g id="plus">
	<line class="st0" x1="147.09" y1="232.82" x2="147.09" y2="252.82"/>
	<line class="st0" x1="137.09" y1="242.82" x2="157.09" y2="242.82"/>
	<circle class="st0" cx="147.09" cy="242.82" r="20"/>
	<rect x="220.82" y="222.36" class="st0" width="30" height="40"/>
	<line class="st0" x1="228.89" y1="232.68" x2="242.74" y2="232.68"/>
	<line class="st0" x1="228.89" y1="241.72" x2="242.74" y2="241.72"/>
	<line class="st0" x1="228.89" y1="250.75" x2="242.74" y2="250.75"/>
	<rect x="262.78" y="229.16" class="st0" width="44.99" height="26.63"/>
	<line class="st0" x1="286.65" y1="244.77" x2="263.7" y2="229.16"/>
	<line class="st0" x1="307.62" y1="228.94" x2="284.97" y2="244.98"/>
	<path class="st1" d="M476.69,61.8l-22.77-41.71c-3.04-5.57-8.87-9.04-15.22-9.06l-98.4-0.31c-6.15-0.02-11.86,3.21-15,8.5
		L299.94,61.8H476.69z"/>
	<path class="st2" d="M328.69,61.8l-22.77-41.71c-3.04-5.57-8.87-9.04-15.22-9.06l-98.4-0.31c-6.15-0.02-11.86,3.21-15,8.5
		L151.94,61.8H328.69z"/>
	<path class="st3" d="M181.69,61.8l-22.77-41.71c-3.04-5.57-8.87-9.04-15.22-9.06l-98.4-0.31c-6.15-0.02-11.86,3.21-15,8.5
		L4.94,61.8H181.69z"/>
</g>
</svg>
